<mxfile host="app.diagrams.net" modified="2023-02-16T11:13:04.902Z" agent="5.0 (Windows NT 10.0; Win64; x64) AppleWebKit/537.36 (KHTML, like Gecko) Chrome/110.0.0.0 Safari/537.36" etag="ws8-20kcfGrJwFz4etrQ" version="20.8.20" type="github">
  <diagram id="C5RBs43oDa-KdzZeNtuy" name="Page-1">
    <mxGraphModel dx="1434" dy="800" grid="1" gridSize="10" guides="1" tooltips="1" connect="1" arrows="1" fold="1" page="1" pageScale="1" pageWidth="827" pageHeight="1169" math="0" shadow="0">
      <root>
        <mxCell id="WIyWlLk6GJQsqaUBKTNV-0" />
        <mxCell id="WIyWlLk6GJQsqaUBKTNV-1" parent="WIyWlLk6GJQsqaUBKTNV-0" />
        <mxCell id="gvW8EVXljuhxFobBcjw6-3" value="" style="edgeStyle=orthogonalEdgeStyle;rounded=0;orthogonalLoop=1;jettySize=auto;html=1;" edge="1" parent="WIyWlLk6GJQsqaUBKTNV-1" source="gvW8EVXljuhxFobBcjw6-0" target="gvW8EVXljuhxFobBcjw6-1">
          <mxGeometry relative="1" as="geometry" />
        </mxCell>
        <mxCell id="gvW8EVXljuhxFobBcjw6-0" value="Start" style="ellipse;whiteSpace=wrap;html=1;" vertex="1" parent="WIyWlLk6GJQsqaUBKTNV-1">
          <mxGeometry x="354" y="30" width="120" height="80" as="geometry" />
        </mxCell>
        <mxCell id="gvW8EVXljuhxFobBcjw6-4" value="" style="edgeStyle=orthogonalEdgeStyle;rounded=0;orthogonalLoop=1;jettySize=auto;html=1;" edge="1" parent="WIyWlLk6GJQsqaUBKTNV-1" source="gvW8EVXljuhxFobBcjw6-1" target="gvW8EVXljuhxFobBcjw6-2">
          <mxGeometry relative="1" as="geometry" />
        </mxCell>
        <mxCell id="gvW8EVXljuhxFobBcjw6-1" value="podaj tablice a&lt;br&gt;min = a[0]&lt;br&gt;max = a[0]&lt;br&gt;i = 0" style="rounded=0;whiteSpace=wrap;html=1;" vertex="1" parent="WIyWlLk6GJQsqaUBKTNV-1">
          <mxGeometry x="354" y="140" width="120" height="60" as="geometry" />
        </mxCell>
        <mxCell id="gvW8EVXljuhxFobBcjw6-7" value="" style="edgeStyle=orthogonalEdgeStyle;rounded=0;orthogonalLoop=1;jettySize=auto;html=1;" edge="1" parent="WIyWlLk6GJQsqaUBKTNV-1" source="gvW8EVXljuhxFobBcjw6-2" target="gvW8EVXljuhxFobBcjw6-5">
          <mxGeometry relative="1" as="geometry" />
        </mxCell>
        <mxCell id="gvW8EVXljuhxFobBcjw6-28" value="" style="edgeStyle=orthogonalEdgeStyle;rounded=0;orthogonalLoop=1;jettySize=auto;html=1;" edge="1" parent="WIyWlLk6GJQsqaUBKTNV-1" source="gvW8EVXljuhxFobBcjw6-2" target="gvW8EVXljuhxFobBcjw6-26">
          <mxGeometry relative="1" as="geometry" />
        </mxCell>
        <mxCell id="gvW8EVXljuhxFobBcjw6-2" value="i &amp;lt; a.długość" style="rhombus;whiteSpace=wrap;html=1;" vertex="1" parent="WIyWlLk6GJQsqaUBKTNV-1">
          <mxGeometry x="356" y="300" width="116" height="110" as="geometry" />
        </mxCell>
        <mxCell id="gvW8EVXljuhxFobBcjw6-10" value="" style="edgeStyle=orthogonalEdgeStyle;rounded=0;orthogonalLoop=1;jettySize=auto;html=1;" edge="1" parent="WIyWlLk6GJQsqaUBKTNV-1" source="gvW8EVXljuhxFobBcjw6-5" target="gvW8EVXljuhxFobBcjw6-6">
          <mxGeometry relative="1" as="geometry" />
        </mxCell>
        <mxCell id="gvW8EVXljuhxFobBcjw6-14" value="" style="edgeStyle=orthogonalEdgeStyle;rounded=0;orthogonalLoop=1;jettySize=auto;html=1;" edge="1" parent="WIyWlLk6GJQsqaUBKTNV-1" source="gvW8EVXljuhxFobBcjw6-5" target="gvW8EVXljuhxFobBcjw6-13">
          <mxGeometry relative="1" as="geometry" />
        </mxCell>
        <mxCell id="gvW8EVXljuhxFobBcjw6-5" value="min &amp;gt; a[i]" style="rhombus;whiteSpace=wrap;html=1;" vertex="1" parent="WIyWlLk6GJQsqaUBKTNV-1">
          <mxGeometry x="354" y="466" width="120" height="120" as="geometry" />
        </mxCell>
        <mxCell id="gvW8EVXljuhxFobBcjw6-6" value="min = a[i]" style="rounded=0;whiteSpace=wrap;html=1;" vertex="1" parent="WIyWlLk6GJQsqaUBKTNV-1">
          <mxGeometry x="176" y="496" width="120" height="60" as="geometry" />
        </mxCell>
        <mxCell id="gvW8EVXljuhxFobBcjw6-8" value="TAK" style="text;html=1;strokeColor=none;fillColor=none;align=center;verticalAlign=middle;whiteSpace=wrap;rounded=0;" vertex="1" parent="WIyWlLk6GJQsqaUBKTNV-1">
          <mxGeometry x="370" y="420" width="60" height="30" as="geometry" />
        </mxCell>
        <mxCell id="gvW8EVXljuhxFobBcjw6-9" value="TAK" style="text;html=1;strokeColor=none;fillColor=none;align=center;verticalAlign=middle;whiteSpace=wrap;rounded=0;" vertex="1" parent="WIyWlLk6GJQsqaUBKTNV-1">
          <mxGeometry x="296" y="500" width="60" height="30" as="geometry" />
        </mxCell>
        <mxCell id="gvW8EVXljuhxFobBcjw6-11" value="max = a[i]" style="rounded=0;whiteSpace=wrap;html=1;" vertex="1" parent="WIyWlLk6GJQsqaUBKTNV-1">
          <mxGeometry x="176" y="640" width="120" height="60" as="geometry" />
        </mxCell>
        <mxCell id="gvW8EVXljuhxFobBcjw6-16" value="" style="edgeStyle=orthogonalEdgeStyle;rounded=0;orthogonalLoop=1;jettySize=auto;html=1;" edge="1" parent="WIyWlLk6GJQsqaUBKTNV-1" source="gvW8EVXljuhxFobBcjw6-13" target="gvW8EVXljuhxFobBcjw6-11">
          <mxGeometry relative="1" as="geometry" />
        </mxCell>
        <mxCell id="gvW8EVXljuhxFobBcjw6-13" value="max &amp;lt; a[i]" style="rhombus;whiteSpace=wrap;html=1;" vertex="1" parent="WIyWlLk6GJQsqaUBKTNV-1">
          <mxGeometry x="354" y="610" width="120" height="120" as="geometry" />
        </mxCell>
        <mxCell id="gvW8EVXljuhxFobBcjw6-15" value="NIE" style="text;html=1;strokeColor=none;fillColor=none;align=center;verticalAlign=middle;whiteSpace=wrap;rounded=0;" vertex="1" parent="WIyWlLk6GJQsqaUBKTNV-1">
          <mxGeometry x="356" y="580" width="60" height="30" as="geometry" />
        </mxCell>
        <mxCell id="gvW8EVXljuhxFobBcjw6-17" value="TAK" style="text;html=1;strokeColor=none;fillColor=none;align=center;verticalAlign=middle;whiteSpace=wrap;rounded=0;" vertex="1" parent="WIyWlLk6GJQsqaUBKTNV-1">
          <mxGeometry x="294" y="640" width="60" height="30" as="geometry" />
        </mxCell>
        <mxCell id="gvW8EVXljuhxFobBcjw6-20" value="" style="endArrow=none;html=1;rounded=0;exitX=0.5;exitY=1;exitDx=0;exitDy=0;" edge="1" parent="WIyWlLk6GJQsqaUBKTNV-1" source="gvW8EVXljuhxFobBcjw6-13">
          <mxGeometry width="50" height="50" relative="1" as="geometry">
            <mxPoint x="320" y="510" as="sourcePoint" />
            <mxPoint x="414" y="750" as="targetPoint" />
          </mxGeometry>
        </mxCell>
        <mxCell id="gvW8EVXljuhxFobBcjw6-21" value="" style="endArrow=none;html=1;rounded=0;" edge="1" parent="WIyWlLk6GJQsqaUBKTNV-1">
          <mxGeometry width="50" height="50" relative="1" as="geometry">
            <mxPoint x="420" y="750" as="sourcePoint" />
            <mxPoint x="90" y="750" as="targetPoint" />
          </mxGeometry>
        </mxCell>
        <mxCell id="gvW8EVXljuhxFobBcjw6-22" value="" style="endArrow=none;html=1;rounded=0;" edge="1" parent="WIyWlLk6GJQsqaUBKTNV-1">
          <mxGeometry width="50" height="50" relative="1" as="geometry">
            <mxPoint x="90" y="750" as="sourcePoint" />
            <mxPoint x="90" y="260" as="targetPoint" />
          </mxGeometry>
        </mxCell>
        <mxCell id="gvW8EVXljuhxFobBcjw6-23" value="i++" style="rounded=0;whiteSpace=wrap;html=1;" vertex="1" parent="WIyWlLk6GJQsqaUBKTNV-1">
          <mxGeometry x="140" y="230" width="120" height="60" as="geometry" />
        </mxCell>
        <mxCell id="gvW8EVXljuhxFobBcjw6-24" value="" style="endArrow=classic;html=1;rounded=0;entryX=0;entryY=0.5;entryDx=0;entryDy=0;" edge="1" parent="WIyWlLk6GJQsqaUBKTNV-1" target="gvW8EVXljuhxFobBcjw6-23">
          <mxGeometry width="50" height="50" relative="1" as="geometry">
            <mxPoint x="90" y="260" as="sourcePoint" />
            <mxPoint x="370" y="460" as="targetPoint" />
          </mxGeometry>
        </mxCell>
        <mxCell id="gvW8EVXljuhxFobBcjw6-25" value="" style="endArrow=classic;html=1;rounded=0;exitX=1;exitY=0.5;exitDx=0;exitDy=0;" edge="1" parent="WIyWlLk6GJQsqaUBKTNV-1" source="gvW8EVXljuhxFobBcjw6-23">
          <mxGeometry width="50" height="50" relative="1" as="geometry">
            <mxPoint x="320" y="510" as="sourcePoint" />
            <mxPoint x="410" y="260" as="targetPoint" />
          </mxGeometry>
        </mxCell>
        <mxCell id="gvW8EVXljuhxFobBcjw6-30" value="" style="edgeStyle=orthogonalEdgeStyle;rounded=0;orthogonalLoop=1;jettySize=auto;html=1;" edge="1" parent="WIyWlLk6GJQsqaUBKTNV-1" source="gvW8EVXljuhxFobBcjw6-26" target="gvW8EVXljuhxFobBcjw6-29">
          <mxGeometry relative="1" as="geometry" />
        </mxCell>
        <mxCell id="gvW8EVXljuhxFobBcjw6-26" value="Wyświetl min i max" style="whiteSpace=wrap;html=1;" vertex="1" parent="WIyWlLk6GJQsqaUBKTNV-1">
          <mxGeometry x="510" y="325" width="120" height="60" as="geometry" />
        </mxCell>
        <mxCell id="gvW8EVXljuhxFobBcjw6-29" value="Koniec" style="ellipse;whiteSpace=wrap;html=1;" vertex="1" parent="WIyWlLk6GJQsqaUBKTNV-1">
          <mxGeometry x="510" y="466" width="120" height="80" as="geometry" />
        </mxCell>
        <mxCell id="gvW8EVXljuhxFobBcjw6-31" value="" style="endArrow=classic;html=1;rounded=0;exitX=0;exitY=0.5;exitDx=0;exitDy=0;" edge="1" parent="WIyWlLk6GJQsqaUBKTNV-1" source="gvW8EVXljuhxFobBcjw6-6">
          <mxGeometry width="50" height="50" relative="1" as="geometry">
            <mxPoint x="320" y="510" as="sourcePoint" />
            <mxPoint x="90" y="526" as="targetPoint" />
          </mxGeometry>
        </mxCell>
        <mxCell id="gvW8EVXljuhxFobBcjw6-32" value="" style="endArrow=classic;html=1;rounded=0;exitX=0;exitY=0.5;exitDx=0;exitDy=0;" edge="1" parent="WIyWlLk6GJQsqaUBKTNV-1">
          <mxGeometry width="50" height="50" relative="1" as="geometry">
            <mxPoint x="176" y="669" as="sourcePoint" />
            <mxPoint x="90" y="669" as="targetPoint" />
          </mxGeometry>
        </mxCell>
        <mxCell id="gvW8EVXljuhxFobBcjw6-33" value="NIE" style="text;html=1;strokeColor=none;fillColor=none;align=center;verticalAlign=middle;whiteSpace=wrap;rounded=0;" vertex="1" parent="WIyWlLk6GJQsqaUBKTNV-1">
          <mxGeometry x="460" y="330" width="60" height="30" as="geometry" />
        </mxCell>
      </root>
    </mxGraphModel>
  </diagram>
</mxfile>
